<?xml version="1.0" encoding="iso-8859-1"?>
<!-- Generator: Adobe Illustrator 19.0.0, SVG Export Plug-In . SVG Version: 6.00 Build 0)  -->
<svg version="1.1" id="Capa_1" xmlns="http://www.w3.org/2000/svg" xmlns:xlink="http://www.w3.org/1999/xlink" x="0px" y="0px"
	 viewBox="0 0 512.003 512.003" style="enable-background:new 0 0 512.003 512.003;" xml:space="preserve">
<linearGradient id="SVGID_1_" gradientUnits="userSpaceOnUse" x1="-14.4466" y1="636.2567" x2="-14.4466" y2="573.0966" gradientTransform="matrix(8.8274 0 0 -8.8274 383.5325 5625.3442)">
	<stop  offset="0" style="stop-color:#FC5C7D"/>
	<stop  offset="0.129" style="stop-color:#F35E85"/>
	<stop  offset="0.343" style="stop-color:#D9659B"/>
	<stop  offset="0.616" style="stop-color:#B070BF"/>
	<stop  offset="0.934" style="stop-color:#777FF0"/>
	<stop  offset="1" style="stop-color:#6A82FB"/>
</linearGradient>
<path style="fill:url(#SVGID_1_);" d="M61.802,150.078v61.792c0,4.873,3.955,8.827,8.827,8.827h17.655v247.168
	c0,4.873,3.955,8.827,8.827,8.827H414.9c4.873,0,8.827-3.955,8.827-8.827V220.698h17.655c4.873,0,8.827-3.955,8.827-8.827v-61.792
	c0-4.873-3.955-8.827-8.827-8.827H298.378l76.163-58.261c15.492-11.838,18.458-34.003,6.612-49.495
	c-0.945-1.245-1.977-2.419-3.081-3.522l-19.668-19.615c-13.788-13.788-36.148-13.78-49.937,0.009
	c-1.103,1.103-2.136,2.277-3.081,3.522l-49.381,64.599l-49.434-64.617c-11.838-15.492-34.003-18.458-49.495-6.612
	c-1.245,0.945-2.419,1.977-3.522,3.081L133.94,30.025c-13.788,13.788-13.78,36.148,0.009,49.937
	c1.103,1.103,2.277,2.136,3.522,3.081l76.163,58.208H70.63C65.748,141.251,61.802,145.205,61.802,150.078z M105.94,220.698h17.655
	v70.619c0,4.873,3.955,8.827,8.827,8.827c1.748,0,3.452-0.512,4.899-1.483l21.583-14.406l21.583,14.389
	c4.052,2.71,9.534,1.615,12.244-2.445c0.962-1.448,1.483-3.143,1.483-4.882v-70.619h17.655v238.341H105.94
	C105.94,459.038,105.94,220.698,105.94,220.698z M272.09,113.4c4.016,4.723,5.738,10.973,4.714,17.09l-1.792,10.761H237
	l-1.765-10.761c-1.024-6.117,0.697-12.367,4.714-17.09c8.086-8.872,21.839-9.516,30.711-1.43
	C271.154,112.429,271.63,112.906,272.09,113.4z M332.866,179.147l-20.241-20.241h28.001l30.137,30.137v85.776l-12.756-8.501
	c-2.966-1.977-6.832-1.977-9.798,0l-12.756,8.501v-89.431C335.453,183.049,334.517,180.807,332.866,179.147z M282.488,331.8
	l-52.965,52.965v-36.828l52.965-52.965V331.8z M282.488,270.008l-52.965,52.965v-36.828l52.965-52.965V270.008z M229.524,261.18
	v-40.483h40.483L229.524,261.18z M229.524,409.728l52.965-52.965v36.828l-52.965,52.965V409.728z M229.524,203.043v-44.137h52.965
	v44.137H229.524z M211.869,203.043h-17.655v-14l17.655-17.655V203.043z M300.143,171.388l17.655,17.655v14h-17.655V171.388z
	 M179.145,179.147c-1.66,1.651-2.586,3.902-2.586,6.241v89.431l-12.756-8.501c-2.966-1.977-6.832-1.977-9.798,0l-12.756,8.501
	v-85.776l30.137-30.137h28.001L179.145,179.147z M242.006,459.038l40.483-40.483v40.483H242.006z M406.072,459.038H300.143V220.698
	h17.655v70.619c0,4.873,3.955,8.827,8.827,8.827c1.748,0,3.452-0.512,4.899-1.483l21.583-14.406l21.583,14.389
	c4.052,2.71,9.534,1.615,12.244-2.445c0.962-1.448,1.483-3.143,1.483-4.882v-70.619h17.655V459.038z M432.555,203.043h-44.137
	v-17.655c0-2.339-0.927-4.59-2.586-6.241l-20.241-20.241h66.965V203.043z M319.44,24.596c5.932-7.742,17.01-9.207,24.752-3.284
	c0.609,0.468,1.192,0.971,1.73,1.518l19.641,19.641c6.885,6.903,6.868,18.079-0.035,24.964c-0.547,0.538-1.121,1.05-1.73,1.518
	l-69.587,53.212c-0.512-4.184-1.704-8.245-3.531-12.041l33.8-33.809l-12.482-12.482l-32.467,32.467
	c-3.257-2.428-6.877-4.325-10.734-5.623L319.44,24.596z M141.249,56.137c-0.335-5.076,1.536-10.054,5.138-13.656l19.641-19.641
	c6.903-6.885,18.079-6.868,24.964,0.035c0.538,0.547,1.05,1.121,1.518,1.73l50.564,66.117c-3.858,1.298-7.477,3.196-10.734,5.623
	l-32.467-32.467L187.39,76.36l33.8,33.809c-1.81,3.796-2.993,7.865-3.487,12.041l-69.587-53.212
	C144.083,65.9,141.576,61.212,141.249,56.137z M79.457,158.906h66.965l-20.241,20.241c-1.66,1.651-2.586,3.902-2.586,6.241v17.655
	H79.457C79.457,203.043,79.457,158.906,79.457,158.906z"/>
<linearGradient id="SVGID_2_" gradientUnits="userSpaceOnUse" x1="-30.4466" y1="636.2556" x2="-30.4466" y2="573.0956" gradientTransform="matrix(8.8274 0 0 -8.8274 383.5325 5625.3442)">
	<stop  offset="0" style="stop-color:#FC5C7D"/>
	<stop  offset="0.129" style="stop-color:#F35E85"/>
	<stop  offset="0.343" style="stop-color:#D9659B"/>
	<stop  offset="0.616" style="stop-color:#B070BF"/>
	<stop  offset="0.934" style="stop-color:#777FF0"/>
	<stop  offset="1" style="stop-color:#6A82FB"/>
</linearGradient>
<path style="fill:url(#SVGID_2_);" d="M52.975,476.693c0,19.5,15.81,35.31,35.31,35.31h88.274v-17.655H88.285
	c-9.754,0-17.655-7.901-17.655-17.655V344.282H52.975C52.975,344.282,52.975,476.693,52.975,476.693z"/>
<g>
	
		<linearGradient id="SVGID_3_" gradientUnits="userSpaceOnUse" x1="-20.4476" y1="636.2567" x2="-20.4476" y2="573.0966" gradientTransform="matrix(8.8274 0 0 -8.8274 383.5325 5625.3442)">
		<stop  offset="0" style="stop-color:#FC5C7D"/>
		<stop  offset="0.129" style="stop-color:#F35E85"/>
		<stop  offset="0.343" style="stop-color:#D9659B"/>
		<stop  offset="0.616" style="stop-color:#B070BF"/>
		<stop  offset="0.934" style="stop-color:#777FF0"/>
		<stop  offset="1" style="stop-color:#6A82FB"/>
	</linearGradient>
	<rect x="194.205" y="494.339" style="fill:url(#SVGID_3_);" width="17.655" height="17.655"/>
	
		<linearGradient id="SVGID_4_" gradientUnits="userSpaceOnUse" x1="7.5524" y1="636.2567" x2="7.5524" y2="573.0966" gradientTransform="matrix(8.8274 0 0 -8.8274 383.5325 5625.3442)">
		<stop  offset="0" style="stop-color:#FC5C7D"/>
		<stop  offset="0.129" style="stop-color:#F35E85"/>
		<stop  offset="0.343" style="stop-color:#D9659B"/>
		<stop  offset="0.616" style="stop-color:#B070BF"/>
		<stop  offset="0.934" style="stop-color:#777FF0"/>
		<stop  offset="1" style="stop-color:#6A82FB"/>
	</linearGradient>
	<rect x="441.373" y="291.308" style="fill:url(#SVGID_4_);" width="17.655" height="150.066"/>
</g>
<linearGradient id="SVGID_5_" gradientUnits="userSpaceOnUse" x1="7.5524" y1="636.2567" x2="7.5524" y2="573.0966" gradientTransform="matrix(8.8274 0 0 -8.8274 383.5325 5625.3442)">
	<stop  offset="0" style="stop-color:#FC5C7D"/>
	<stop  offset="0.129" style="stop-color:#F35E85"/>
	<stop  offset="0.343" style="stop-color:#D9659B"/>
	<stop  offset="0.616" style="stop-color:#B070BF"/>
	<stop  offset="0.934" style="stop-color:#777FF0"/>
	<stop  offset="1" style="stop-color:#6A82FB"/>
</linearGradient>
<rect x="441.373" y="255.999" style="fill:url(#SVGID_5_);" width="17.655" height="17.655"/>
<g>
</g>
<g>
</g>
<g>
</g>
<g>
</g>
<g>
</g>
<g>
</g>
<g>
</g>
<g>
</g>
<g>
</g>
<g>
</g>
<g>
</g>
<g>
</g>
<g>
</g>
<g>
</g>
<g>
</g>
</svg>
